<svg xmlns="http://www.w3.org/2000/svg" width="150" height="50"><path d="M11 18 C77 27,91 29,144 37" stroke="#8ee372" fill="none"/><path d="M16 41 C57 37,78 26,135 35" stroke="#66c9ea" fill="none"/><path fill="#76df76" d="M80.10 49.61L80.05 49.56L80.12 49.63Q83.01 45.74 85.90 39.54L85.86 39.50L85.85 39.49Q82.80 33.01 76.71 24.94L76.60 24.83L76.73 24.96Q78.67 26.14 81.45 26.79L81.31 26.65L81.40 26.74Q84.99 31.47 87.43 36.68L87.43 36.69L87.29 36.54Q89.47 31.26 92.55 26.85L92.54 26.83L92.61 26.91Q94.78 26.52 96.87 25.72L96.83 25.69L96.96 25.81Q93.44 29.52 89.97 36.95L90.09 37.07L87.23 43.03L87.25 43.06Q85.76 46.14 84.01 48.76L84.10 48.85L83.98 48.73Q81.48 49.01 80.03 49.54ZM86.36 51.04L86.36 51.03L86.20 50.87Q88.09 48.16 89.54 44.89L89.36 44.70L92.11 38.39L92.23 38.52Q95.62 30.38 98.93 26.38L98.95 26.39L98.97 26.41Q97.59 27.05 95.69 27.74L95.71 27.76L96.85 26.46L96.83 26.45Q97.27 25.63 97.88 24.95L97.97 25.03L98.03 25.09Q95.20 26.00 92.35 26.45L92.35 26.45L92.40 26.51Q89.75 30.52 87.81 34.98L87.64 34.81L87.79 34.95Q86.04 31.53 84.25 28.71L84.24 28.70L84.31 28.77Q84.03 28.68 83.67 28.65L83.81 28.79L83.67 28.64Q83.40 28.70 83.21 28.70L83.16 28.65L83.15 28.64Q82.44 27.44 81.49 26.29L81.50 26.31L81.52 26.33Q78.41 25.72 75.67 24.01L75.56 23.90L75.58 23.92Q81.92 32.01 85.61 39.63L85.44 39.45L85.55 39.57Q83.30 44.55 79.23 50.19L79.34 50.29L79.22 50.18Q80.11 49.97 80.91 49.81L80.88 49.78L82.43 49.35L82.59 49.51Q81.90 50.16 80.72 51.79L80.82 51.89L80.82 51.89Q82.92 51.09 86.19 50.87Z"/><path fill="#e6be45" d="M60.49 29.45L60.52 29.48L60.60 29.56Q59.30 28.68 58.65 28.71L58.76 28.82L58.71 28.78Q57.32 28.83 56.28 29.84L56.24 29.80L56.27 29.84Q55.31 30.93 55.43 32.30L55.26 32.14L55.30 32.18Q55.73 36.64 54.85 41.17L54.88 41.20L54.87 41.19Q52.64 41.62 51.53 42.15L51.41 42.03L51.44 42.06Q52.99 37.94 52.76 33.49L52.64 33.37L52.78 33.50Q52.49 28.95 50.77 24.87L50.76 24.86L50.87 24.97Q51.89 25.53 54.17 26.18L54.12 26.13L54.88 29.02L54.83 28.96Q55.47 26.03 59.73 26.03L59.67 25.96L59.67 25.97Q60.04 25.87 60.34 25.87L60.47 26.00L60.48 26.01Q61.78 26.02 63.04 26.71L62.96 26.62L62.96 26.62Q61.62 27.96 60.48 29.44ZM62.20 31.54L62.17 31.36L62.32 31.51Q63.07 30.21 64.75 27.77L64.85 27.87L64.81 27.83Q64.33 27.46 62.81 27.20L62.82 27.21L62.82 27.21Q63.12 26.86 63.57 26.25L63.53 26.20L63.57 26.25Q61.76 25.43 59.82 25.62L59.71 25.51L59.86 25.66Q57.81 25.74 57.08 26.01L57.14 26.06L57.06 25.98Q55.72 26.47 54.92 27.58L54.98 27.63L54.67 26.68L54.56 25.92L54.56 25.92Q52.03 25.37 50.05 24.04L50.24 24.22L50.23 24.22Q52.24 28.47 52.47 33.35L52.54 33.42L52.55 33.42Q52.64 38.19 50.88 42.72L50.89 42.73L51.00 42.84Q52.04 42.32 52.92 42.01L52.93 42.03L52.90 42.00Q52.62 43.09 52.13 44.16L52.09 44.12L52.19 44.22Q55.10 43.44 57.24 43.33L57.11 43.20L57.30 38.67L57.42 38.79Q57.50 36.51 57.50 34.26L57.35 34.12L57.43 34.19Q57.38 32.96 58.29 31.99L58.35 32.05L58.34 32.04Q59.30 31.12 60.45 31.04L60.33 30.93L60.34 30.94Q61.04 30.87 61.76 31.56L61.70 31.49L62.21 31.55ZM57.16 29.70L57.08 29.55L57.10 29.68L57.15 29.69Z"/><path fill="#86e386" d="M35.63 23.36L35.49 23.22L35.63 23.36Q33.93 19.30 27.73 19.49L27.66 19.42L27.71 19.47Q23.21 19.50 21.23 20.95L21.20 20.92L21.34 21.06Q18.93 22.80 18.93 26.91L18.75 26.73L18.88 28.73L18.81 28.66Q18.75 37.43 27.77 37.43L27.77 37.43L27.89 37.55Q29.98 37.58 31.47 36.78L31.47 36.79L31.41 36.73Q33.14 35.61 32.99 33.74L33.04 33.79L33.05 33.80Q32.88 31.73 29.19 30.82L29.18 30.80L27.27 30.83L27.29 30.86Q26.39 30.91 25.44 30.95L25.42 30.93L25.43 30.94Q25.37 29.93 25.33 28.02L25.34 28.03L25.41 28.10Q32.95 27.99 37.14 27.65L37.11 27.61L37.24 27.75Q37.21 28.60 37.21 29.40L37.15 29.34L37.19 29.38Q37.14 30.13 37.18 30.93L37.12 30.87L37.16 30.90Q36.11 30.96 36.11 30.96L36.15 31.00L35.96 30.81Q34.71 30.93 35.09 30.93L34.97 30.80L35.02 30.86Q36.20 32.57 36.58 34.55L36.60 34.57L36.59 34.56Q36.55 35.13 36.55 35.59L36.54 35.58L36.54 35.58Q36.54 40.22 27.75 40.22L27.78 40.25L27.85 40.32Q20.68 40.28 18.10 38.18L18.15 38.24L18.02 38.11Q16.23 35.94 16.23 30.87L16.14 30.78L16.17 30.81Q16.12 29.70 15.97 26.99L15.98 27.01L15.91 26.93Q15.77 24.59 15.81 23.22L15.95 23.36L15.94 23.35Q15.95 20.39 17.32 18.79L17.36 18.83L17.36 18.83Q19.84 16.70 24.71 16.51L24.78 16.58L27.45 16.51L27.51 16.58Q30.53 16.39 33.96 16.81L33.96 16.82L34.05 16.90Q37.71 17.30 38.67 20.53L38.75 20.61L38.72 20.59Q37.69 21.50 35.60 23.33ZM36.97 25.50L37.06 25.47L37.02 25.43Q38.18 24.31 40.04 22.33L40.12 22.40L40.18 22.47Q39.85 21.49 38.86 19.77L38.91 19.82L38.83 19.74Q37.74 17.17 33.93 16.52L33.82 16.41L33.76 16.35Q31.70 16.31 27.40 16.00L27.37 15.98L24.71 16.13L24.80 16.22Q19.64 16.43 17.05 18.41L16.98 18.34L17.07 18.42Q15.52 19.88 15.40 22.97L15.53 23.09L15.51 23.07Q15.47 22.58 15.70 28.06L15.68 28.04L15.76 28.12Q15.67 29.37 15.75 32.11L15.87 32.23L15.85 32.21Q16.12 36.74 17.87 38.69L17.85 38.66L17.77 38.58Q18.16 39.43 19.04 40.30L19.00 40.27L19.12 40.39Q21.92 42.16 27.44 42.50L27.51 42.57L30.35 42.71L30.43 42.79Q31.92 42.80 33.94 42.69L34.03 42.77L33.92 42.66Q35.33 42.55 37.42 42.02L37.47 42.06L37.59 42.19Q39.41 41.57 39.38 39.25L39.41 39.28L39.36 39.23Q39.47 38.09 38.40 35.31L38.31 35.21L38.32 35.22Q37.98 34.27 37.44 33.47L37.59 33.62L37.49 33.52Q38.11 33.57 39.30 33.76L39.24 33.70L39.30 33.76Q38.99 30.15 39.03 29.46L39.10 29.54L38.97 29.41Q38.66 29.48 38.25 29.44L38.21 29.41L38.15 29.34Q37.87 29.40 37.49 29.48L37.54 29.53L37.44 29.43Q37.55 28.44 37.62 27.37L37.63 27.37L37.62 27.37Q31.31 27.84 25.03 27.72L25.04 27.73L24.97 27.66Q25.02 28.58 25.02 29.50L25.09 29.57L24.92 31.15L25.02 31.25Q25.45 31.30 25.87 31.26L25.77 31.16L25.90 31.29Q26.19 31.17 26.65 31.17L26.76 31.28L26.77 31.29Q26.74 31.71 26.78 32.21L26.72 32.16L26.81 32.24Q26.77 32.66 26.73 33.16L26.78 33.20L26.70 33.12Q27.83 33.19 28.86 33.15L28.71 33.00L28.86 33.15Q29.79 33.05 30.82 33.09L30.91 33.18L30.91 33.19Q31.84 33.31 32.72 33.69L32.64 33.62L32.84 33.85L32.65 33.67Q32.96 35.34 31.28 36.26L31.33 36.30L31.22 36.20Q29.67 37.23 27.96 37.23L27.84 37.11L27.88 37.16Q24.10 37.22 21.66 35.47L21.60 35.41L21.50 35.30Q20.67 33.41 20.83 30.86L20.87 30.91L20.84 30.88Q21.06 26.00 22.91 24.00L23.01 24.10L22.93 24.02Q24.83 22.08 29.51 21.77L29.51 21.77L29.43 21.69Q33.03 21.40 34.97 23.19L35.08 23.31L34.99 23.22Q35.10 23.36 35.21 23.55L35.30 23.64L35.35 23.57L35.33 23.55Q35.96 24.29 36.53 25.40L36.58 25.45L37.02 25.54Z"/><path fill="#c1dd6d" d="M112.75 40.29L112.92 40.45L112.93 40.47Q108.81 40.65 107.82 38.33L107.70 38.21L107.74 38.24Q108.61 37.40 110.17 35.62L110.10 35.55L110.06 35.50Q110.55 37.52 113.56 37.64L113.54 37.62L113.67 37.75Q116.92 37.68 118.55 36.34L118.57 36.36L118.53 36.33Q119.95 34.74 119.88 32.04L120.03 32.19L119.98 32.14Q119.77 27.01 114.97 27.24L115.04 27.31L114.92 27.19Q112.21 27.45 110.46 28.71L110.53 28.77L110.04 28.44L109.97 28.44L109.92 28.40Q110.22 25.20 110.11 22.46L110.22 22.57L110.20 22.55Q110.07 19.91 109.73 16.59L109.74 16.61L109.68 16.55Q113.36 17.53 117.17 17.41L117.21 17.46L117.10 17.34Q120.86 17.22 124.44 15.96L124.58 16.10L124.00 17.62L123.88 17.49Q123.73 18.42 123.54 19.25L123.43 19.14L123.55 19.27Q120.43 20.29 116.54 20.29L116.37 20.12L116.53 20.27Q115.10 20.29 113.62 20.14L113.58 20.11L113.49 20.01Q113.38 20.66 113.03 25.11L113.17 25.25L113.06 25.14Q113.92 24.71 115.98 24.56L115.97 24.55L116.05 24.63Q119.77 24.85 121.21 26.52L121.11 26.42L121.17 26.48Q122.64 28.09 122.90 31.94L122.74 31.77L122.84 31.87Q123.12 36.07 121.90 38.09L121.85 38.05L121.95 38.15Q119.84 39.96 116.53 40.18L116.63 40.29L116.59 40.24Q115.61 40.33 112.94 40.48ZM118.98 42.75L118.99 42.76L118.86 42.63Q122.24 42.66 124.15 41.56L124.17 41.58L124.15 41.56Q125.15 40.05 125.15 37.96L125.20 38.01L125.21 38.01Q125.14 34.86 124.18 30.75L124.21 30.77L124.25 30.81Q123.94 29.14 122.73 27.73L122.57 27.57L122.79 27.83L122.54 27.51L122.13 27.24L122.08 27.20Q121.89 26.58 121.24 25.90L121.17 25.83L121.22 25.92L121.19 25.89Q119.74 24.28 116.04 24.28L115.89 24.13L115.67 24.18L115.71 24.21Q115.78 23.64 115.97 22.53L115.88 22.44L115.99 22.55Q121.04 22.73 125.07 21.09L124.96 20.97L125.06 21.07Q125.34 19.53 126.29 16.71L126.44 16.86L124.26 17.73L124.32 17.78Q124.70 16.64 125.19 15.50L125.22 15.53L125.17 15.48Q121.26 16.85 117.15 16.93L117.11 16.89L117.10 16.88Q113.05 17.06 109.09 15.96L109.14 16.01L109.18 16.05Q109.82 20.42 109.82 24.84L109.70 24.72L109.83 24.84Q109.71 26.62 109.59 28.53L109.68 28.62L109.76 28.69Q109.95 28.80 110.52 29.11L110.58 29.17L110.62 29.21Q110.86 28.88 111.51 28.54L111.54 28.57L111.42 28.45Q111.42 29.25 111.19 30.77L111.18 30.76L111.17 30.75Q111.64 30.99 112.06 31.22L112.02 31.18L112.05 31.21Q114.76 29.40 116.63 29.40L116.80 29.57L116.72 29.49Q117.97 29.40 119.15 30.05L119.14 30.04L119.33 30.24Q119.64 31.22 119.67 32.17L119.60 32.10L119.71 32.21Q119.70 34.72 118.68 35.82L118.61 35.75L118.75 35.90Q117.34 37.07 115.09 37.30L115.05 37.25L115.12 37.33Q114.02 37.25 113.33 37.18L113.38 37.22L113.36 37.20Q112.60 37.17 111.84 36.83L111.74 36.72L111.73 36.52L111.76 36.78L111.74 36.77Q110.86 36.19 110.33 34.86L110.29 34.82L110.30 34.83Q109.00 36.27 107.32 38.40L107.39 38.46L107.27 38.34Q107.54 38.96 108.37 39.91L108.47 40.00L108.43 39.97Q109.48 41.78 112.30 42.27L112.34 42.31L112.26 42.23Q113.58 42.60 118.94 42.71Z"/></svg>